<?xml version="1.0" encoding="utf-8"?>
<!-- Generator: Adobe Illustrator 19.0.0, SVG Export Plug-In . SVG Version: 6.00 Build 0)  -->
<svg version="1.1" id="圖層_1" xmlns="http://www.w3.org/2000/svg" xmlns:xlink="http://www.w3.org/1999/xlink" x="0px" y="0px"
	 viewBox="0 0 52.2 48.8" style="enable-background:new 0 0 52.2 48.8;" xml:space="preserve">
<style type="text/css">
	.st0{fill:#E6E6E6;}
</style>
<g>
	<path class="st0" d="M26.1,0C11.7,0,0,9.3,0,20.9c0,10.3,9.3,18.8,21.5,20.6h0c0.3,0,0.6,0.1,0.9,0.1c4.2,0.9,0.5,6.1,1.9,7.1
		c1.6,1.2,13.4-6.7,20.6-13.4c1-0.9,2-1.8,2.8-2.8l0,0c0.2-0.2,0.4-0.4,0.5-0.6c2.5-3.2,3.9-6.9,3.9-11C52.2,9.3,40.5,0,26.1,0z
		 M15.9,27.1c0,0.9-0.7,1.6-1.6,1.6H8.3h0H8.1c-0.9,0-1.6-0.7-1.6-1.6V15.2c0-0.9,0.7-1.6,1.6-1.6h0.1c0.9,0,1.6,0.7,1.6,1.6v10.2
		h4.5c0.9,0,1.6,0.7,1.6,1.6V27.1z M20.6,27.1c0,0.9-0.7,1.6-1.6,1.6h-0.1c-0.9,0-1.6-0.7-1.6-1.6V15.2c0-0.9,0.7-1.6,1.6-1.6H19
		c0.9,0,1.6,0.7,1.6,1.6V27.1z M35.1,27.1c0,0.4-0.2,0.8-0.5,1.1v0c-0.1,0.1-0.2,0.2-0.4,0.3c-0.2,0.1-0.5,0.2-0.8,0.2h-0.1
		c-0.2,0-0.4,0-0.6-0.1c-0.2-0.1-0.5-0.2-0.6-0.5c0-0.1-0.1-0.1-0.1-0.2l-5.8-8v7.1c0,0.9-0.7,1.6-1.6,1.6h-0.1
		c-0.9,0-1.6-0.7-1.6-1.6V15.2c0-0.9,0.7-1.6,1.6-1.6h0.1c0.6,0,1.1,0.3,1.4,0.8l5.8,7.8v-7c0-0.9,0.7-1.6,1.6-1.6h0.1
		c0.9,0,1.6,0.7,1.6,1.6V27.1z M46.6,15.3c0,0.9-0.7,1.6-1.6,1.6h-4.5v2.5H45c0.9,0,1.6,0.7,1.6,1.6v0.1c0,0.9-0.7,1.6-1.6,1.6h-4.5
		v2.5H45c0.9,0,1.6,0.7,1.6,1.6v0.1c0,0.9-0.7,1.6-1.6,1.6h-6.1h0h-0.1c-0.9,0-1.6-0.7-1.6-1.6V15.2c0-0.9,0.7-1.6,1.6-1.6h0.1h0H45
		c0.9,0,1.6,0.7,1.6,1.6V15.3z"/>
</g>
</svg>
