<?xml version="1.0" encoding="utf-8"?>
<!-- Generator: Adobe Illustrator 19.0.0, SVG Export Plug-In . SVG Version: 6.00 Build 0)  -->
<svg version="1.1" id="圖層_1" xmlns="http://www.w3.org/2000/svg" xmlns:xlink="http://www.w3.org/1999/xlink" x="0px" y="0px"
	 viewBox="-261 402.9 73 37" style="enable-background:new -261 402.9 73 37;" xml:space="preserve">
<style type="text/css">
	.st0{fill:none;stroke:#3A5575;stroke-width:2.5;stroke-miterlimit:10;}
	.st1{fill:none;stroke:#3A5575;stroke-width:3;stroke-miterlimit:10;}
	.st2{fill:#3A5575;}
	.st3{fill:none;stroke:#3A5575;stroke-width:2.5185;stroke-miterlimit:10;}
	.st4{fill:#FFFFFF;}
</style>
<g id="XMLID_42_">
	<path id="XMLID_58_" class="st0" d="M-208.1,406.9h-22.1c-5.5,0-10,4.5-10,10v8c0,5.5,4.5,10,10,10h31.1c5.5,0,10-3.4,10-7.5
		c0-4.1,0-7.5,0-7.5"/>
</g>
<g id="XMLID_41_">
	<g id="XMLID_63_">
		<line id="XMLID_69_" class="st1" x1="-211.5" y1="429.8" x2="-195.9" y2="414.2"/>
		<g id="XMLID_67_">
			<polygon id="XMLID_68_" class="st2" points="-192.9,419.7 -189.8,408.1 -201.3,411.2 			"/>
		</g>
	</g>
</g>
<line id="XMLID_33_" class="st3" x1="-217.1" y1="406.9" x2="-217.1" y2="434.9"/>
<g>
	<path class="st2" d="M-241.5,403.2c-10.7,0-19.4,7-19.4,15.6c0,7.7,6.9,14.1,16,15.4l0,0c0.2,0,0.4,0.1,0.6,0.1
		c3.1,0.6,0.4,4.5,1.4,5.3c1.2,0.9,10-5,15.4-10c0.8-0.7,1.5-1.4,2.1-2.1l0,0c0.2-0.2,0.3-0.3,0.4-0.5c1.8-2.4,2.9-5.2,2.9-8.2
		C-222,410.1-230.7,403.2-241.5,403.2z"/>
	<g>
		<path id="XMLID_31_" class="st4" d="M-249,423.4c0,0.7-0.5,1.2-1.2,1.2h-4.5l0,0h-0.1c-0.7,0-1.2-0.5-1.2-1.2v-8.9
			c0-0.7,0.5-1.2,1.2-1.2h0.1c0.7,0,1.2,0.5,1.2,1.2v7.6h3.3C-249.5,422.1-249,422.6-249,423.4L-249,423.4z"/>
		<path id="XMLID_30_" class="st4" d="M-245.5,423.4c0,0.7-0.5,1.2-1.2,1.2h-0.1c-0.7,0-1.2-0.5-1.2-1.2v-8.9c0-0.7,0.5-1.2,1.2-1.2
			h0.1c0.7,0,1.2,0.5,1.2,1.2V423.4z"/>
		<path id="XMLID_29_" class="st4" d="M-234.7,423.4c0,0.3-0.1,0.6-0.4,0.8l0,0c-0.1,0.1-0.2,0.2-0.3,0.2c-0.2,0.1-0.4,0.1-0.6,0.1
			h-0.1c-0.2,0-0.3,0-0.4-0.1c-0.2-0.1-0.3-0.2-0.5-0.3l-0.1-0.1l-4.4-6v5.3c0,0.7-0.5,1.2-1.2,1.2h-0.1c-0.7,0-1.2-0.5-1.2-1.2
			v-8.9c0-0.7,0.5-1.2,1.2-1.2h0.1c0.4,0,0.8,0.2,1,0.6l4.3,5.8v-5.2c0-0.7,0.5-1.2,1.2-1.2h0.1c0.7,0,1.2,0.5,1.2,1.2v9H-234.7z"/>
		<path id="XMLID_28_" class="st4" d="M-226.2,414.6c0,0.7-0.5,1.2-1.2,1.2h-3.3v1.9h3.3c0.7,0,1.2,0.5,1.2,1.2v0.1
			c0,0.7-0.5,1.2-1.2,1.2h-3.3v1.9h3.3c0.7,0,1.2,0.5,1.2,1.2v0.1c0,0.7-0.5,1.2-1.2,1.2h-4.5l0,0h-0.1c-0.7,0-1.2-0.5-1.2-1.2v-8.9
			c0-0.7,0.5-1.2,1.2-1.2h0.1l0,0h4.5C-226.7,413.3-226.2,413.9-226.2,414.6L-226.2,414.6z"/>
	</g>
</g>
</svg>
