<?xml version="1.0" encoding="utf-8"?>
<svg class="st0" version="1.1" id="圖層_1" xmlns="http://www.w3.org/2000/svg" xmlns:xlink="http://www.w3.org/1999/xlink" x="0px" y="0px"
	 viewBox="0 0 16 16" style="enable-background:new 0 0 16 16;" xml:space="preserve">
<style type="text/css">
	.st0{height:18px;width:18px;display:block;fill:#58595b}
</style>
<path d="m2.5 7c0-2.5 2-4.5 4.5-4.5s4.5 2 4.5 4.5-2 4.5-4.5 4.5-4.5-2-4.5-4.5m13.1 6.9-2.8-2.9c.7-1.1 1.2-2.5 1.2-4 0-3.9-3.1-7-7-7s-7 3.1-7 7 3.1 7 7 7c1.5 0 2.9-.5 4-1.2l2.9 2.8c.2.3.5.4.9.4.3 0 .6-.1.8-.4.5-.5.5-1.2 0-1.7"></path>
</svg>