<?xml version="1.0" encoding="utf-8"?>
<!-- Generator: Adobe Illustrator 19.0.0, SVG Export Plug-In . SVG Version: 6.00 Build 0)  -->
<svg version="1.1" id="圖層_1" xmlns="http://www.w3.org/2000/svg" xmlns:xlink="http://www.w3.org/1999/xlink" x="0px" y="0px"
	 viewBox="-241 405.4 112.5 30.5" style="enable-background:new -241 405.4 112.5 30.5;" xml:space="preserve">
<style type="text/css">
	.st0{fill:#3A5778;}
	.st1{fill:none;stroke:#3A5778;stroke-width:2.5;stroke-miterlimit:10;}
	.st2{fill:none;stroke:#3A5778;stroke-width:2.5185;stroke-miterlimit:10;}
	.st3{fill:none;stroke:#3A5778;stroke-width:3;stroke-miterlimit:10;}
</style>
<path class="st0" d="M-212.4,412.1h-3c-1.7,0-4.3,0-6,0h-3c-1.7,0-3,1.3-3,3v3c0,1.7,0,4.3,0,6v3c0,1.7,1.3,3,3,3h3c1.7,0,4.3,0,6,0
	h3c1.7,0,3-1.3,3-3v-3c0-1.7,0-4.3,0-6v-3C-209.4,413.4-210.8,412.1-212.4,412.1z M-212.2,421.5h-2.5v7h-2.8v-7h-2.2v-2.8h2.2v-1.4
	c0-1.8,1.1-3.2,3.5-3.2c0.5,0,1,0.1,1.5,0.1v2.1c-0.3,0-0.7-0.1-1-0.1c-0.8,0-1.1,0.3-1.1,1.2v1.2h2.5L-212.2,421.5L-212.2,421.5z"
	/>
<path class="st0" d="M-200.1,413.7c-0.4,1.3-1.2,2.6-2.2,4s-2.1,2.5-3.3,3.3l-1.1-1.2c2.2-1.5,4-3.8,5.2-6.7L-200.1,413.7z
	 M-193.5,419.7c0,1.7-0.1,3.3-0.2,5c-0.1,1.7-0.3,2.7-0.5,3s-0.4,0.7-0.8,0.9c-0.4,0.2-0.8,0.3-1.3,0.3c-1.1,0-1.9,0-2.3,0l-0.4-1.6
	c0.8,0.1,1.7,0.1,2.6,0.1c0.2,0,0.4-0.1,0.6-0.2s0.3-0.9,0.4-2.2c0.1-1.3,0.2-2.6,0.2-3.7h-3.9c-0.5,3.6-2.4,6.1-5.8,7.8l-1.1-1.3
	c1.2-0.5,2.4-1.3,3.4-2.4c1-1.1,1.6-2.5,1.8-4.1h-2.9v-1.6C-203.7,419.7-193.5,419.7-193.5,419.7z M-190.7,419.8l-1,1.3
	c-2.2-1.9-3.7-4-4.5-6.2h-1.6v-1.5h2.7C-194.4,415.9-193,418.1-190.7,419.8z"/>
<path class="st0" d="M-172.3,426.1h-6.8v1.2c0,0.5-0.1,0.8-0.3,1.1c-0.2,0.3-0.5,0.4-0.8,0.5c-0.3,0.1-0.9,0.1-1.9,0.1
	c-0.6,0-1,0-1.4,0l-0.6-1.6c0.6,0,1.1,0.1,1.7,0.1c0.9,0,1.4,0,1.5-0.1c0.1,0,0.2-0.1,0.2-0.3v-1h-7.3v-1.3h7.3v-1.1
	c1.1-0.2,2.1-0.4,3-0.7h-9.1v-1.3h12.6v1.3c-1.6,0.7-3.3,1.3-5,1.7v0.2h6.8L-172.3,426.1L-172.3,426.1z M-172.5,415.8h-15.3v-1.3
	h6.5c-0.2-0.2-0.4-0.5-0.7-0.9l1.8-0.5c0.4,0.5,0.7,1,0.9,1.4h6.8V415.8z M-174.1,420.7h-12v-3.8h12V420.7z M-175.8,419.4v-1.3h-8.6
	v1.3H-175.8z"/>
<polyline id="XMLID_16_" class="st1" points="-143.4,406.7 -157.7,406.7 -157.7,434.7 -129.7,434.7 -129.7,419.7 "/>
<polyline id="XMLID_15_" class="st2" points="-157.7,406.7 -239.7,406.7 -239.7,434.7 -157.7,434.7 "/>
<line id="XMLID_39_" class="st3" x1="-152.1" y1="429.5" x2="-136.5" y2="414"/>
<g id="XMLID_37_">
	<polygon id="XMLID_38_" class="st0" points="-133.5,419.4 -130.4,407.9 -142,411 	"/>
</g>
</svg>
