<?xml version="1.0" encoding="utf-8"?>
<!-- Generator: Adobe Illustrator 19.0.0, SVG Export Plug-In . SVG Version: 6.00 Build 0)  -->
<svg version="1.1" id="圖層_1" xmlns="http://www.w3.org/2000/svg" xmlns:xlink="http://www.w3.org/1999/xlink" x="0px" y="0px"
	 viewBox="-241 405.4 112.5 30.5" style="enable-background:new -241 405.4 112.5 30.5;" xml:space="preserve">
<style type="text/css">
	.st0{fill:#3A5778;}
	.st1{fill:none;stroke:#3A5778;stroke-width:2.5;stroke-miterlimit:10;}
	.st2{fill:none;stroke:#3A5778;stroke-width:2.5185;stroke-miterlimit:10;}
	.st3{fill:none;stroke:#3A5778;stroke-width:3;stroke-miterlimit:10;}
</style>
<path id="XMLID_29_" class="st0" d="M-187,413.4c-0.4,1.3-1.2,2.6-2.2,4c-1,1.4-2.1,2.5-3.3,3.3l-1.1-1.2c2.2-1.5,4-3.8,5.2-6.7
	L-187,413.4z M-180.4,419.4c0,1.7-0.1,3.3-0.2,5c-0.1,1.7-0.3,2.7-0.5,3c-0.2,0.3-0.4,0.7-0.8,0.9c-0.4,0.2-0.8,0.3-1.3,0.3
	c-1.1,0-1.9,0-2.3,0l-0.5-1.6c0.8,0.1,1.7,0.1,2.6,0.1c0.2,0,0.4-0.1,0.6-0.2c0.2-0.1,0.3-0.9,0.4-2.2c0.1-1.3,0.2-2.6,0.2-3.7h-3.8
	c-0.5,3.6-2.4,6.1-5.8,7.8l-1.1-1.2c1.2-0.5,2.4-1.3,3.4-2.4s1.6-2.5,1.8-4.1h-2.9v-1.6L-180.4,419.4L-180.4,419.4z M-177.6,419.5
	l-1,1.3c-2.2-1.9-3.7-4-4.5-6.2h-1.6v-1.5h2.7C-181.3,415.6-179.9,417.8-177.6,419.5z"/>
<path id="XMLID_33_" class="st0" d="M-161.3,425.8h-6.8v1.2c0,0.5-0.1,0.8-0.3,1.1c-0.2,0.3-0.5,0.4-0.8,0.5s-0.9,0.1-1.9,0.1
	c-0.6,0-1,0-1.4,0l-0.6-1.6c0.6,0,1.1,0.1,1.7,0.1c0.9,0,1.4,0,1.5-0.1c0.1,0,0.2-0.1,0.2-0.3v-1h-7.3v-1.3h7.3v-1.1
	c1.1-0.2,2.1-0.4,3-0.7h-9.1v-1.3h12.6v1.3c-1.6,0.7-3.3,1.3-5,1.7v0.2h6.8L-161.3,425.8L-161.3,425.8z M-161.6,415.5h-15.3v-1.3
	h6.5c-0.2-0.2-0.4-0.5-0.7-0.9l1.8-0.5c0.4,0.5,0.7,1,0.9,1.4h6.8C-161.6,414.2-161.6,415.5-161.6,415.5z M-163.2,420.4h-12v-3.8h12
	V420.4z M-164.9,419.1v-1.3h-8.6v1.3H-164.9z"/>
<polyline class="st1" points="-143.3,406.4 -157.7,406.4 -157.7,434.4 -129.7,434.4 -129.7,419.4 "/>
<polyline class="st2" points="-157.7,406.4 -239.7,406.4 -239.7,434.4 -157.7,434.4 "/>
<line id="XMLID_26_" class="st3" x1="-152.1" y1="429.2" x2="-136.5" y2="413.7"/>
<g id="XMLID_24_">
	<polygon id="XMLID_25_" class="st0" points="-133.5,419.1 -130.4,407.6 -142,410.7 	"/>
</g>
<path id="XMLID_102_" class="st0" d="M-232.2,428.5c-0.2,0-0.4-0.2-0.4-0.4v-13.5c0-0.2,0.2-0.4,0.4-0.4h1.9c0.2,0,0.4,0.2,0.4,0.4
	v11.6h5.8c0.2,0,0.4,0.2,0.4,0.4v1.5c0,0.2-0.2,0.4-0.4,0.4H-232.2z"/>
<path id="XMLID_100_" class="st0" d="M-221.5,428.5c-0.2,0-0.4-0.2-0.4-0.4v-13.5c0-0.2,0.2-0.4,0.4-0.4h1.9c0.2,0,0.4,0.2,0.4,0.4
	v13.5c0,0.2-0.2,0.4-0.4,0.4H-221.5z"/>
<path id="XMLID_98_" class="st0" d="M-206.7,428.5c-0.1,0-0.3-0.1-0.3-0.2l-4.6-6.8c-0.8-1.2-1.4-2.2-2-3.1c0,1.2,0.1,2.4,0.1,4v5.7
	c0,0.2-0.2,0.4-0.4,0.4h-1.8c-0.2,0-0.4-0.2-0.4-0.4v-13.5c0-0.2,0.2-0.4,0.4-0.4h2c0.1,0,0.3,0.1,0.3,0.2l4.7,6.8
	c0.7,1,1.3,1.9,1.8,2.8c-0.1-1.2-0.1-2.5-0.1-3.8v-5.6c0-0.2,0.2-0.4,0.4-0.4h1.8c0.2,0,0.4,0.2,0.4,0.4v13.5c0,0.2-0.2,0.4-0.4,0.4
	H-206.7z"/>
<path id="XMLID_96_" class="st0" d="M-200.8,428.5c-0.2,0-0.4-0.2-0.4-0.4v-13.5c0-0.2,0.2-0.4,0.4-0.4h7.8c0.2,0,0.4,0.2,0.4,0.4
	v1.5c0,0.2-0.2,0.4-0.4,0.4h-5.6v3.5h5.2c0.2,0,0.4,0.2,0.4,0.4v1.4c0,0.2-0.2,0.4-0.4,0.4h-5.2v4.1h5.9c0.2,0,0.4,0.2,0.4,0.4v1.4
	c0,0.2-0.2,0.4-0.4,0.4H-200.8z"/>
</svg>
