<?xml version="1.0" encoding="utf-8"?>
<!-- Generator: Adobe Illustrator 19.0.0, SVG Export Plug-In . SVG Version: 6.00 Build 0)  -->
<svg version="1.1" id="圖層_1" xmlns="http://www.w3.org/2000/svg" xmlns:xlink="http://www.w3.org/1999/xlink" x="0px" y="0px"
	 viewBox="0 0 73 37" style="enable-background:new 0 0 73 37;" xml:space="preserve">
<style type="text/css">
	.st0{fill:none;stroke:#3A5575;stroke-width:2.5185;stroke-miterlimit:10;}
	.st1{fill:none;stroke:#3A5575;stroke-width:3;stroke-miterlimit:10;}
	.st2{fill:#3A5575;}
	.st3{fill:#FFFFFF;}
</style>
<g id="XMLID_58_">
	<path id="XMLID_73_" class="st0" d="M52.3,5.5H30.2c-5.5,0-10,4.5-10,10v8c0,5.5,4.5,10,10,10h31.1c5.5,0,10-3.4,10-7.5
		s0-7.5,0-7.5"/>
</g>
<g id="XMLID_57_">
	<g id="XMLID_79_">
		<line id="XMLID_82_" class="st1" x1="48.9" y1="28.4" x2="64.5" y2="12.8"/>
		<g id="XMLID_80_">
			<polygon id="XMLID_81_" class="st2" points="67.5,18.3 70.6,6.7 59,9.8 			"/>
		</g>
	</g>
</g>
<line id="XMLID_56_" class="st0" x1="43.2" y1="5.5" x2="43.2" y2="33.5"/>
<g id="XMLID_59_">
	<g id="XMLID_62_">
		<path id="XMLID_63_" class="st2" d="M18.9,0.1C8.8,0.1,0.5,8.3,0.5,18.5c0,10.2,8.2,18.4,18.4,18.4c10.2,0,18.4-8.2,18.4-18.4
			C37.3,8.3,29.1,0.1,18.9,0.1z"/>
	</g>
	<g id="XMLID_60_">
		<path id="XMLID_54_" class="st3" d="M28.3,20.1H24v12.5h-5V20.1H15v-5h3.9v-2.5c0-3.3,2-5.6,6.2-5.6c0.9,0,1.8,0.1,2.7,0.1V11
			c-0.6-0.1-1.2-0.1-1.8-0.1c-1.3,0-1.9,0.6-1.9,2.1v2.2h4.4V20.1z"/>
	</g>
</g>
</svg>
